<?xml version="1.0" standalone="no"?>
<!DOCTYPE svg PUBLIC "-//W3C//DTD SVG 20010904//EN"
 "http://www.w3.org/TR/2001/REC-SVG-20010904/DTD/svg10.dtd">
<svg version="1.0" xmlns="http://www.w3.org/2000/svg"
 width="4096.000000pt" height="1572.000000pt" viewBox="0 0 4096.000000 1572.000000"
 preserveAspectRatio="xMidYMid meet">

<g transform="translate(0.000000,1572.000000) scale(0.100000,-0.100000)"
fill="#000000" stroke="none">
<path d="M0 7860 l0 -7860 20480 0 20480 0 0 7860 0 7860 -20480 0 -20480 0 0
-7860z m3530 4565 c311 -73 598 -240 1000 -583 174 -149 667 -642 891 -892
196 -219 419 -477 588 -682 l113 -138 81 0 c63 0 95 -6 141 -25 l59 -24 166
95 c201 114 673 353 906 459 582 264 1110 428 1540 481 162 19 475 23 608 6
174 -22 285 -76 303 -146 32 -130 -237 -383 -601 -564 -498 -248 -1290 -468
-2385 -662 -151 -26 -301 -51 -332 -55 l-58 -7 -23 -52 c-28 -60 -75 -117
-121 -145 l-33 -21 -6 -307 c-22 -1046 -150 -1855 -382 -2424 -139 -340 -368
-688 -496 -755 -44 -23 -104 -22 -136 2 -48 34 -100 154 -130 299 -24 118 -27
150 -26 345 0 164 5 253 22 375 78 578 294 1339 655 2317 42 113 76 209 76
212 0 3 -15 29 -33 58 -37 59 -57 118 -57 170 0 34 -2 36 -196 152 -1054 632
-1746 1214 -2117 1781 -199 305 -300 578 -250 675 34 67 108 84 233 55z m6860
-2734 c75 -54 129 -208 169 -486 103 -708 -89 -1627 -610 -2923 l-71 -174 30
-57 c30 -55 52 -137 52 -189 0 -23 14 -36 103 -91 182 -115 587 -384 762 -506
535 -374 903 -671 1205 -975 246 -247 354 -388 461 -605 88 -180 108 -279 69
-343 -54 -87 -207 -80 -485 23 -570 211 -1137 660 -1819 1439 -154 176 -417
497 -529 647 l-57 76 -83 6 c-62 5 -95 13 -137 35 l-55 29 -340 -172 c-385
-194 -563 -279 -850 -408 -621 -278 -1197 -469 -1565 -521 -330 -46 -607 -18
-695 70 -43 43 -46 85 -9 164 49 106 343 366 565 499 558 335 1355 572 2478
736 130 19 248 35 262 35 21 0 33 11 60 57 20 33 57 75 89 100 30 24 60 47 66
52 7 5 14 79 18 187 42 1094 182 2097 366 2629 111 319 295 611 425 672 54 25
84 24 125 -6z m8660 -411 c171 -45 301 -121 426 -252 127 -133 208 -287 258
-489 46 -189 51 -255 51 -709 -1 -352 -4 -441 -18 -520 -64 -364 -226 -626
-474 -766 -163 -92 -280 -119 -518 -119 -152 1 -194 4 -269 23 -404 101 -652
401 -728 882 -9 62 -13 206 -13 525 0 488 7 566 67 755 122 381 374 616 735
685 116 22 371 14 483 -15z m-5543 -20 c468 -63 791 -389 881 -888 26 -146 25
-896 -1 -1027 -72 -363 -251 -623 -526 -764 -53 -27 -127 -58 -166 -70 -155
-46 -222 -51 -681 -51 l-434 0 0 1405 0 1405 424 0 c239 0 459 -5 503 -10z
m2825 -5 c196 -29 339 -98 463 -220 133 -131 194 -276 217 -513 24 -254 -34
-505 -158 -674 -44 -59 -142 -150 -199 -183 -38 -23 -43 -29 -36 -48 7 -17
247 -579 452 -1059 16 -37 29 -74 29 -82 0 -14 -36 -16 -304 -16 l-303 0 -201
488 c-111 268 -204 496 -208 507 -4 11 -12 23 -18 27 -6 4 -71 8 -143 8 l-133
0 0 -515 0 -515 -285 0 -285 0 0 1405 0 1405 508 0 c393 0 529 -3 604 -15z
m4905 -148 c40 -89 119 -265 176 -392 57 -126 208 -464 337 -750 128 -286 237
-524 242 -529 4 -6 8 405 8 912 l0 922 280 0 280 0 0 -1405 0 -1405 -284 0
-284 0 -22 53 c-12 28 -73 165 -135 302 -110 244 -261 579 -528 1170 -71 160
-134 294 -139 300 -4 5 -8 -404 -8 -908 l0 -917 -285 0 -285 0 0 1405 0 1405
288 0 287 -1 72 -162z m3793 -72 l0 -235 -525 0 -525 0 2 -332 3 -333 443 -3
442 -2 0 -225 0 -225 -442 -2 -443 -3 -3 -372 -2 -373 525 0 525 0 0 -235 0
-235 -805 0 -805 0 0 1405 0 1405 805 0 805 0 0 -235z m12002 215 c370 -82
606 -359 643 -757 l7 -73 -180 0 -179 0 -7 83 c-18 232 -135 393 -323 445 -71
19 -218 20 -293 2 -178 -42 -287 -168 -310 -360 -23 -195 42 -333 210 -445 84
-56 168 -95 365 -170 357 -136 539 -270 634 -467 51 -106 70 -185 78 -323 20
-393 -181 -675 -557 -776 -74 -20 -108 -23 -260 -23 -204 0 -283 16 -435 88
-272 129 -439 373 -471 689 l-6 67 179 0 180 0 6 -72 c22 -262 185 -432 449
-469 151 -21 318 13 406 84 57 45 98 99 124 165 30 76 33 288 5 368 -50 144
-165 232 -452 344 -358 140 -467 201 -606 339 -109 110 -155 188 -190 331 -29
115 -23 305 13 426 77 257 299 453 578 509 100 20 289 18 392 -5z m-10758
-395 c84 -203 212 -518 285 -698 74 -180 137 -324 141 -320 4 4 46 103 93 218
171 420 428 1051 454 1113 l26 62 200 0 c155 0 198 -3 194 -12 -3 -7 -108
-240 -235 -518 -126 -278 -304 -670 -396 -871 l-166 -367 0 -521 0 -521 -175
0 -175 0 0 523 0 524 -64 139 c-88 191 -705 1551 -722 1592 l-14 32 201 -2
202 -3 151 -370z m2976 370 c0 -5 747 -2321 871 -2700 16 -50 29 -93 29 -98 0
-4 -81 -7 -179 -7 l-179 0 -11 33 c-5 17 -40 131 -76 252 -37 121 -82 271
-101 333 l-35 112 -477 -2 -476 -3 -93 -310 c-51 -170 -100 -334 -108 -362
l-16 -53 -179 0 c-99 0 -180 3 -180 7 0 6 471 1473 690 2148 32 99 93 287 135
418 l77 237 154 0 c85 0 154 -2 154 -5z m2663 -6 c240 -36 414 -141 523 -314
93 -150 129 -314 121 -550 -6 -170 -20 -239 -76 -360 -63 -134 -173 -254 -302
-328 l-55 -32 82 -180 c45 -99 168 -369 273 -599 105 -231 191 -423 191 -428
0 -4 -87 -8 -194 -8 -190 0 -195 1 -201 21 -8 26 -482 1099 -487 1105 -3 2
-115 5 -251 6 l-247 3 0 -568 0 -567 -177 2 -178 3 -2 1390 c-2 765 -1 1396 2
1403 6 16 870 17 978 1z m2505 -22 c186 -53 316 -130 433 -254 151 -160 234
-350 275 -624 13 -90 15 -183 11 -551 -4 -413 -5 -450 -26 -543 -47 -212 -130
-379 -250 -508 -126 -133 -274 -217 -469 -264 -105 -26 -115 -26 -534 -30
l-428 -5 0 1407 0 1406 448 -4 447 -3 93 -27z m-17808 -3902 c0 -365 -3 -465
-12 -466 -7 -1 -34 -2 -60 -4 l-48 -2 0 468 0 469 60 0 60 0 0 -465z m6480
288 c0 -159 2 -175 15 -156 24 35 87 53 183 54 131 0 186 -21 216 -84 14 -30
16 -75 16 -301 l0 -266 -60 0 -60 0 0 259 0 260 -25 19 c-33 27 -92 36 -171
27 -113 -12 -108 0 -114 -306 l-5 -264 -58 0 -57 0 0 468 0 467 60 0 60 0 0
-177z m3420 -288 l0 -465 -60 0 -60 0 0 465 0 465 60 0 60 0 0 -465z m-5582
347 l3 -62 -61 0 -60 0 0 59 c0 35 5 61 11 63 6 2 32 3 58 3 l46 -1 3 -62z
m8815 52 c36 -6 37 -8 37 -49 0 -23 -2 -44 -4 -46 -3 -3 -58 1 -123 8 -183 18
-271 4 -298 -48 -17 -33 -20 -160 -5 -189 19 -35 53 -43 200 -50 236 -10 265
-35 265 -235 0 -113 -2 -123 -27 -167 -19 -32 -41 -52 -71 -67 -81 -39 -245
-48 -439 -24 l-48 6 0 53 c0 30 3 54 8 54 4 0 42 -7 85 -15 93 -18 250 -20
298 -4 60 20 69 39 69 149 0 126 -8 138 -105 150 -39 5 -102 9 -141 10 -138 0
-203 43 -224 147 -15 72 -6 186 18 227 21 36 68 65 131 82 48 13 309 18 374 8z
m-13933 -49 l0 -45 -235 0 -235 0 0 -140 0 -140 210 0 210 0 0 -45 0 -45 -210
0 -210 0 0 -203 0 -203 -62 1 -63 0 -3 433 -2 432 300 0 300 0 0 -45z m3660
-140 l0 -185 230 0 230 0 0 185 0 185 65 0 65 0 0 -433 0 -433 -57 2 c-32 1
-61 2 -65 3 -5 0 -8 91 -8 201 l0 200 -227 -2 -228 -3 -3 -198 -2 -198 -63 3
-62 3 -3 428 -2 427 65 0 65 0 0 -185z m6240 140 l0 -45 -235 0 -235 0 0 -140
0 -140 213 -2 212 -3 3 -42 3 -43 -213 -2 c-161 -2 -213 -6 -214 -15 -1 -7 -2
-96 -3 -198 l-1 -185 -60 0 -60 0 -1 405 c-1 223 -1 414 -1 425 0 11 0 22 1
25 1 3 134 5 296 5 l295 0 0 -45z m8970 -75 l0 -100 115 0 115 0 0 -40 0 -40
-116 0 -115 0 3 -225 c3 -218 4 -225 26 -247 20 -21 32 -23 112 -23 l90 0 0
-36 0 -37 -66 -7 c-131 -14 -221 11 -261 72 -16 24 -18 56 -21 265 l-3 238
-70 0 -69 0 0 40 0 40 70 0 70 0 0 100 0 100 60 0 60 0 0 -100z m-12650 -101
c20 -5 46 -18 58 -29 l22 -21 0 26 c0 24 2 25 61 25 l60 0 -3 -392 -3 -393
-25 -45 c-16 -29 -40 -53 -67 -68 -56 -31 -193 -46 -328 -37 l-105 7 0 44 0
45 63 -8 c34 -4 105 -8 157 -8 154 0 188 33 189 183 1 42 -3 72 -9 72 -5 0
-10 -4 -10 -9 0 -16 -77 -40 -154 -47 -152 -14 -256 32 -276 121 -5 22 -10
117 -10 211 0 196 12 249 64 289 62 47 204 62 316 34z m8948 -1 c18 -5 46 -21
62 -35 l30 -25 30 26 c40 33 89 46 181 47 133 2 197 -30 219 -110 5 -20 10
-151 10 -291 l0 -255 -60 -1 -60 0 0 258 c0 259 0 259 -24 283 -43 42 -198 46
-248 5 -23 -18 -23 -22 -28 -281 l-5 -263 -57 -2 -58 -1 0 242 c0 143 -4 254
-10 272 -14 38 -48 54 -125 60 -81 6 -156 -15 -172 -47 -9 -18 -13 -93 -13
-272 l0 -248 -60 0 -60 0 0 320 0 320 60 0 60 0 0 -32 c1 -28 3 -31 13 -17 46
59 200 82 315 47z m1679 0 c46 -11 76 -38 92 -81 7 -18 11 -130 11 -295 l0
-267 -55 0 c-51 0 -55 2 -55 23 l0 23 -28 -21 c-42 -31 -139 -44 -237 -32 -97
13 -116 22 -144 73 -28 49 -30 187 -3 238 30 61 74 75 249 79 l153 4 0 74 c0
106 -6 109 -217 108 l-163 -1 0 38 c0 37 1 38 43 43 106 15 286 12 354 -6z
m1186 13 c4 -1 7 -23 7 -50 l0 -48 -82 -5 c-96 -5 -125 -19 -138 -68 -6 -19
-10 -135 -10 -257 l0 -223 -60 0 -60 0 0 320 0 320 60 0 60 0 0 -37 0 -37 20
22 c39 41 118 72 170 66 14 -1 28 -3 33 -3z m-16373 -268 c47 -138 88 -255 92
-258 4 -4 12 10 17 31 6 22 42 138 79 259 l68 220 62 3 62 3 -51 -143 c-27
-79 -100 -286 -161 -460 l-111 -318 -63 0 -64 0 21 53 c12 28 34 88 51 132
l29 81 -120 317 c-67 175 -121 322 -121 328 0 6 25 9 62 7 l62 -3 86 -252z
m3460 -69 l0 -325 -42 5 c-24 2 -51 5 -60 5 -17 1 -18 23 -18 321 l0 320 60 0
60 0 0 -326z m6439 79 c46 -137 87 -254 92 -262 4 -9 22 34 48 117 23 73 59
191 81 262 l41 130 59 0 c33 0 60 -1 60 -3 0 -4 -264 -755 -302 -859 l-21 -58
-58 0 c-33 0 -59 4 -59 9 0 5 20 62 45 128 25 65 45 123 45 128 0 6 -54 152
-120 325 -66 173 -120 318 -120 322 0 5 28 8 63 8 l62 0 84 -247z"/>
<path d="M3400 12198 c0 -28 59 -189 105 -283 117 -242 297 -475 592 -766 269
-266 523 -476 913 -755 226 -162 793 -534 813 -534 4 0 7 10 7 23 1 38 37 104
84 155 l46 49 -63 31 c-652 326 -1181 657 -1602 1001 -151 123 -456 422 -541
531 -146 186 -219 297 -301 460 -29 58 -53 97 -53 88z"/>
<path d="M9040 11050 c-259 -37 -363 -57 -565 -112 -360 -97 -771 -254 -1265
-482 -140 -65 -727 -360 -739 -372 -2 -2 10 -15 27 -29 37 -31 92 -137 92
-178 0 -37 1 -37 147 59 531 347 1078 638 1523 811 486 188 892 271 1278 260
101 -3 181 -3 179 0 -3 2 -47 13 -98 24 -107 23 -464 35 -579 19z"/>
<path d="M6074 9334 c37 -450 26 -1138 -24 -1579 -74 -648 -234 -1159 -476
-1521 -85 -127 -86 -130 -10 -49 400 425 648 1272 740 2525 16 216 36 579 36
657 0 39 -2 44 -17 38 -62 -24 -138 -24 -227 0 l-29 8 7 -79z"/>
<path d="M10385 9505 c4 -17 8 -36 11 -43 15 -49 37 -231 42 -352 33 -709
-197 -1548 -721 -2632 -52 -108 -92 -199 -89 -202 3 -3 24 -6 46 -6 46 0 109
-26 161 -66 l35 -26 11 28 c595 1538 772 2617 533 3251 -27 75 -39 93 -29 48z"/>
<path d="M8955 5924 c-1170 -201 -1988 -466 -2485 -803 -112 -76 -249 -191
-317 -267 -89 -99 -109 -129 -58 -85 201 169 334 258 554 369 444 226 987 378
1708 476 175 24 594 64 751 72 78 4 142 10 142 13 0 3 -9 31 -21 61 -16 42
-20 72 -17 128 l3 72 -30 -1 c-16 0 -120 -16 -230 -35z"/>
<path d="M9901 5625 c-35 -49 -89 -90 -134 -100 -15 -4 -30 -11 -33 -16 -9
-16 328 -420 610 -729 729 -800 1387 -1279 1893 -1376 117 -22 126 -16 28 20
-329 120 -606 289 -930 565 -139 118 -448 430 -580 585 -236 276 -493 615
-701 922 -59 88 -110 162 -114 167 -3 4 -21 -13 -39 -38z"/>
<path d="M18698 8829 c-193 -28 -306 -177 -353 -464 -11 -69 -15 -188 -15
-510 0 -445 7 -536 51 -668 25 -79 98 -187 148 -221 122 -85 309 -98 441 -31
132 67 211 226 239 479 14 121 14 727 1 867 -38 402 -216 592 -512 548z"/>
<path d="M13150 7865 l0 -937 163 4 c131 4 175 9 229 27 148 48 226 147 276
351 23 98 30 892 8 1038 -29 192 -70 283 -163 359 -82 66 -155 85 -350 91
l-163 4 0 -937z"/>
<path d="M15790 8380 l0 -422 213 4 c207 3 213 4 262 30 59 31 105 77 134 135
84 168 60 474 -47 586 -15 16 -49 41 -77 55 -49 26 -56 26 -267 30 l-218 4 0
-422z"/>
<path d="M29076 8680 c-9 -30 -94 -316 -190 -635 -96 -319 -173 -581 -172
-583 2 -1 174 -1 383 0 l380 3 -187 620 c-103 341 -189 627 -192 635 -3 9 -12
-9 -22 -40z"/>
<path d="M31290 8396 l0 -536 253 0 c195 0 266 4 312 15 160 42 277 155 327
319 29 92 31 295 4 395 -45 167 -131 263 -281 312 -64 21 -92 23 -342 27
l-273 4 0 -536z"/>
<path d="M33790 7825 l0 -1107 218 5 c183 4 230 8 302 27 264 69 412 255 465
584 21 130 21 849 0 989 -30 198 -86 327 -185 427 -74 74 -152 119 -260 150
-64 19 -108 23 -307 27 l-233 6 0 -1108z"/>
<path d="M21824 5390 c-49 -20 -54 -41 -54 -248 0 -188 1 -193 23 -216 28 -28
105 -40 186 -30 123 15 131 29 131 252 0 184 -8 218 -56 238 -37 16 -195 18
-230 4z"/>
<path d="M32359 5111 c-21 -17 -24 -27 -24 -95 0 -65 3 -79 23 -98 21 -21 32
-23 125 -23 82 0 109 4 130 18 26 17 27 20 27 117 l0 100 -129 0 c-112 0 -132
-3 -152 -19z"/>
</g>
</svg>
